<?xml version="1.0" encoding="utf-8"?>
<!-- Generator: Adobe Illustrator 27.5.0, SVG Export Plug-In . SVG Version: 6.00 Build 0)  -->
<svg version="1.1" xmlns="http://www.w3.org/2000/svg" xmlns:xlink="http://www.w3.org/1999/xlink" x="0px" y="0px"
	 viewBox="0 0 750 500" style="enable-background:new 0 0 750 500;" xml:space="preserve">
<g id="BACKGROUND">
	<rect x="-0.002" y="0.001" style="fill:#FFFFFF;" width="750" height="499.982"/>
</g>
<g id="OBJECTS">
	<g>
		<g>
			<g>
				<path style="fill:#05843F;" d="M295.354,457.712c-41.002,4.705-85.005,2.823-119.007-22.582
					c-53.595-37.819-113.573-59.87-176.37-50.74v115.612h520.25c-38.944-14.124-72.915-39.471-114.867-43.23
					C368.358,453.008,332.356,453.008,295.354,457.712z"/>
				<path style="fill:#0F9A3F;" d="M750.02,483.814c-63.226,16.882-131.28,3.566-185.651-35.511
					c-38.002-27.287-75.004-49.869-124.007-47.987c-72.004,3.764-156.009,31.05-217.012-17.878
					C161.982,333.191,79.441,265.571-0.023,296.401v87.99c62.797-9.13,122.775,12.921,176.37,50.74
					c34.002,25.405,78.004,27.287,119.007,22.582c37.002-4.704,73.004-4.704,110.006-0.941
					c41.952,3.759,75.924,29.107,114.867,43.23H750.02V483.814z"/>
				<path style="fill:#EFEBE9;" d="M707.377,456.771c-75.004,8.468-136.008-28.227-200.011-60.219
					c-18.001-9.409-38.002-14.114-60.003-12.232c-49.003,4.704-96.005,10.35-145.008,2.823
					c-61.004-8.468-102.006-52.691-153.009-83.742c-20.001-11.291-40.002-20.7-64.004-25.405
					c-25.001-3.764-49.003-3.764-71.004,3.764c-4.584,1.618-9.496,2.608-14.361,3.344v11.296
					c79.464-30.83,162.005,36.791,223.373,86.038c61.003,48.928,145.008,21.641,217.012,17.878
					c49.003-1.882,86.005,20.7,124.007,47.987c54.37,39.077,122.424,52.393,185.651,35.511v-31.36
					C735.849,453.75,721.644,455.173,707.377,456.771z"/>
			</g>
			<g>
				<path style="fill:#EFEBE9;" d="M664.543,177.834c-25.309-22.548-37.413-51.672-69.324-69.522
					c-60.521-35.7-129.845-10.334-194.768-4.697c-93.533,8.455-166.158-49.793-243.185-89.251
					c-10.23-5.273-21.27-10.19-32.082-14.322L87.296,0.045c17.624,8.948,36.098,17.326,53.465,27.472
					c50.618,28.185,146.695,135.626,361.063,87.56c57.135-12.811,99.997,47.726,128.607,74.971
					c31.857,31.017,75.071,46.027,119.546,47.391v-26.427C717.616,209.47,687.85,198.419,664.543,177.834z"/>
				<path style="fill:#271D1D;" d="M382.845,28.456c-52.123,9.974-95.86-9.688-138.76-28.422L125.185,0.042
					c10.812,4.131,21.852,9.048,32.082,14.322c77.027,39.458,149.652,97.706,243.185,89.251
					c64.923-5.637,134.247-31.003,194.768,4.697c31.911,17.85,44.015,46.974,69.324,69.522
					c23.306,20.585,53.073,31.635,85.434,33.177v-95.934c-52.637-11.996-99.736-38.971-144.854-68.77
					C540.2,2.151,458.772,14.364,382.845,28.456z"/>
				<path d="M244.085,0.034c42.9,18.734,86.637,38.397,138.76,28.422C458.772,14.364,540.2,2.151,605.123,46.306
					c45.119,29.799,92.218,56.774,144.854,68.77V0.043L244.085,0.034z"/>
			</g>
		</g>
		<linearGradient id="SVGID_1_" gradientUnits="userSpaceOnUse" x1="-180.2751" y1="248.9298" x2="400.1723" y2="251.2061">
			<stop  offset="0.068" style="stop-color:#A3031D"/>
			<stop  offset="0.3805" style="stop-color:#B40320"/>
			<stop  offset="0.9936" style="stop-color:#DF0328"/>
			<stop  offset="1" style="stop-color:#DF0328"/>
		</linearGradient>
		<polygon style="fill:url(#SVGID_1_);" points="-0.002,0.001 -0.002,500.002 46.7,499.991 289.204,260.723 140.147,-0.179 		"/>
	</g>
	<g>
		<g style="opacity:0.5;">
			
				<text transform="matrix(1 0 0 1 325.7027 290.1402)" style="fill:#BFBFBF; font-family:'Allura-Regular'; font-size:126.6261px;">Freedom</text>
		</g>
		<g>
			
				<text transform="matrix(1 0 0 1 321.8492 288.8558)" style="fill:#271D1D; font-family:'Allura-Regular'; font-size:126.6261px;">Freedom</text>
		</g>
	</g>
	<g>
		<g style="opacity:0.5;">
			
				<text transform="matrix(1 0 0 1 341.2959 344.1839)" style="fill:#BFBFBF; font-family:'Montserrat-ExtraBold'; font-size:39.5129px; letter-spacing:1;">NON-VIOLENCE</text>
		</g>
		<g>
			<g>
				
					<text transform="matrix(1 0 0 1 338.2959 344.1839)" style="fill:#271D1D; font-family:'Montserrat-ExtraBold'; font-size:39.5129px; letter-spacing:1;">NON-VIOLENCE</text>
			</g>
		</g>
	</g>
	<g>
		<g style="opacity:0.5;">
			<path style="fill:#BFBFBF;" d="M235.059,254.176c-3.372-7.809-3.536-30.436-1.47-44.816c2.959-20.602,2.819-39.007,0.468-39.919
				c-2.351-0.912-4.556,5.616-4.556,5.616s-1.043-31.322-34.111-74.212c-19.08-24.747-23.721-8.109-9.809,22.732
				c-23.566-23.109-40.128-15.756-10.454,16.67c-40.644-17.345-37.627,2.761-15.781,16.832
				c-33.149-8.588-18.335,11.431-10.882,18.816c-9.398-2.585-2.781,7.307-2.781,7.307c-19.424-2.147-14.053,12.217-6.693,23.841
				c7.36,11.624,50.927,52.383,64.4,56.604C216.863,267.87,235.059,254.176,235.059,254.176z"/>
			<path style="fill:#BFBFBF;" d="M139.031,162.208c5.403,7.428,13.278,15.208,22.167,14.313
				c-5.762,18.392,13.074,37.532,18.883,31.139c0.198,8.37,5.484,21.131,9.233,9.653c5.881,15.767,31.098,23.721,43.838-4.479
				c-1.583,14.318-1.205,34.136,1.907,41.342c0,0-18.195,13.694-31.669,9.473c-13.473-4.221-57.04-44.981-64.4-56.605
				c-7.361-11.624-12.732-25.988,6.693-23.841c0,0-6.617-9.892,2.781-7.307C145.157,172.619,140.404,166.857,139.031,162.208z"/>
			<path style="fill:#BFBFBF;" d="M213.885,189.449c3.126-13.142-1.614-45.474-7.271-20.21c-5.65-11.909-8.489-7.173-5.532,7.451
				c-11.958-13.891-26.377-15.842-6.211,11.969c-2.452-10.486,0.79-19.015,11.872,2.644c-4.227-15.106-0.698-21.657,1.061-13.72
				C211.311,165.625,215.176,170.21,213.885,189.449z"/>
			<path style="fill:none;stroke:#BFBFBF;stroke-width:1.098;stroke-linecap:round;stroke-miterlimit:10;" d="M290.863,197.32
				c0.518,46.868-24.112,70.546-46.037,70.33"/>
			<path style="fill:#BFBFBF;" d="M290.814,200.083c0,0,8.377-5.616,0.138-17.587C283.325,192.844,290.814,200.083,290.814,200.083z
				"/>
			<path style="fill:#BFBFBF;" d="M290.061,207.8c0,0,2.953-8.316-9.082-12.424C281.024,206.624,290.061,207.8,290.061,207.8z"/>
			<path style="fill:#BFBFBF;" d="M289.705,216.025c0,0-0.081-8.825-12.794-8.553C280.812,218.022,289.705,216.025,289.705,216.025z
				"/>
			<path style="fill:#BFBFBF;" d="M285.658,229.797c0,0,2.887-8.339-9.179-12.353C276.611,228.692,285.658,229.797,285.658,229.797z
				"/>
			<path style="fill:#BFBFBF;" d="M286.892,230.989c0,0,6.884,5.521,14.719-4.495C290.972,222.839,286.892,230.989,286.892,230.989z
				"/>
			<path style="fill:#BFBFBF;" d="M281.978,239.487c0,0,2.082-7.73-9.091-10.595C273.721,239.062,281.978,239.487,281.978,239.487z"
				/>
			<path style="fill:#BFBFBF;" d="M282.221,242.17c0,0,4.705,6.477,13.954-0.417C287.739,236.014,282.221,242.17,282.221,242.17z"/>
			<path style="fill:#BFBFBF;" d="M275.816,249.345c0,0,2.973-4.689-3.836-8.89C270.436,247.362,275.816,249.345,275.816,249.345z"
				/>
			<path style="fill:#BFBFBF;" d="M276.268,251.417c0,0,3.794,4.054,9.568-1.485C279.537,246.706,276.268,251.417,276.268,251.417z"
				/>
			<path style="fill:#BFBFBF;" d="M290.584,209.066c0,0,1.09-8.757,13.689-7.033C299.19,212.068,290.584,209.066,290.584,209.066z"
				/>
			<path style="fill:#BFBFBF;" d="M289.178,219.47c0,0,1.09-8.757,13.689-7.033C297.783,222.472,289.178,219.47,289.178,219.47z"/>
			<path style="fill:#BFBFBF;" d="M150.03,328.418c-6.215,7.8-41.789,52.641-48.535,61.843c-6.747,9.202,2.436,16.911,6.008,13.7
				c-1.177,13.67,8.088,14.42,11.627,10.021c3.211,23.433,14.211,22.351,16.793,14.82c3.754,13.259,16.095,4.451,16.095,4.451
				c3.308,14.87,20.223,10.113,19.126-3.037c12.19,6.665,13.308-8.936,13.308-8.936c12.744-2.059,13.34-15.273,13.34-15.273
				c11.208-2.799,13.476-14.956,8.84-21.632c10.166-3.444,15.733-17.796,10.25-26.802c6.865-6.597,9.771-18.988,5.637-24.502
				c7.394-13.49,3.155-21.255,3.155-21.255s-15.954,5.567-27.233,6.474C187.163,319.198,150.03,328.418,150.03,328.418z"/>
			<path style="fill:#BFBFBF;" d="M202.645,335.94c10.103,10.107,1.567,18.798-4.892,18.172c4.044,9.389-2.822,4.225-5.634,2.974
				c8.533,28.992-11.943,39.785-22.945,24.831c-1.595,15.101-7.056,6.878-7.493,1.294c-7.692,18.813-23.278,4.067-20.459-7.526
				c-9.599,9.566-9.255-2.723-7.307-8.01c-5.974,3.139-11.756,1.837-15.103,0.215c12.894-16.332,25.738-33.265,30.836-39.584
				c0,0,37.515-9.109,48.793-10.016c4.348-0.35,9.389-1.393,13.945-2.542C217.29,321.54,211.006,332.468,202.645,335.94z"/>
			<path style="fill:#BFBFBF;" d="M253.962,230.967c-6.67-7.164-18.731-8.057-30.897-3.018c-9.762,4.043-44.372,12.598-58.68,36.544
				c-14.307,23.947-16.761,61.23-14.784,76.709c2.266,17.738,23.613,22.866,34.729,4.513c13.653-22.543,34.137-30.226,40.505-44.264
				c7.94-17.505,3.593-25.493,11.516-37.576c4.829-7.366,14.193-0.014,20.42-8.138C261.036,250.173,261.632,239.205,253.962,230.967
				z"/>
			<path style="fill:#BFBFBF;" d="M247.775,256.748c0.095-2.375,5.711-2.424,7.447-4.715c1.344-1.772,3.159-0.318,2.971,1.344
				c-0.409,0.862-0.883,1.657-1.422,2.36c-2.217,2.892-4.455,3.686-7.121,4.018C248.768,259.055,247.725,257.988,247.775,256.748z"
				/>
			<path style="fill:#BFBFBF;" d="M244.372,250.128c-0.186-0.155,0.291-3.382-1.245-4.66c-1.537-1.278-3.696,0.038-3.696,0.038
				s-0.323,3.041,1.489,4.035C242.732,250.537,244.372,250.128,244.372,250.128z"/>
			<path style="fill:#BFBFBF;" d="M256.7,254.418c2.574,6.243,2.936,15.41,2.259,15.872c-0.678,0.462-9.993-11.241-9.993-11.241
				S253.021,254.436,256.7,254.418z"/>
			<path style="fill:#BFBFBF;" d="M156.575,281.895c-7.086,26.1-4.519,50.612,4.928,61.06c12.559,13.89,29.49-4.322,23.947-17.367
				c-1.421-3.343-8.982-37.527-8.299-36.063c6.994,14.986,7.75,23.219,25.131,27.822c3.736,0.99,7.343-0.429,10.445-1.586
				c-8.743,7.637-19.895,15.913-28.398,29.953c-11.115,18.353-32.463,13.225-34.729-4.513
				C148.06,329.135,149.213,303.816,156.575,281.895z"/>
			<path style="fill:#BFBFBF;" d="M229.622,254.191c1.111-1.144,9.983,1.173,17.98,5.841c-4.277,0.226-8.5-0.354-11.252,3.843
				c-2.772,4.228-4.04,7.955-4.86,11.763C231.35,263.694,228.507,255.339,229.622,254.191z"/>
			<path style="fill:#BFBFBF;" d="M213.375,254.695c-9.218-5.439-66.253-70.003-90.345-93.994
				C98.937,136.711,59.346,96.41,46.77,79.35C34.194,62.29,30.851,56.62,29.358,58.619c-1.493,1.998,21.488,37.493,21.488,37.493
				s-14.534-14.322-17.099-9.982c-2.566,4.34,24.159,31.91,36.304,42.392c-10.995-2.897-5.667,7.193,2.343,14.087
				c-9.644-0.183-2.202,12.543,10.964,23.229c-4.58,1.924-2.047,4.903,2.725,4.885c-9.456,7.036,0.664,21.879,10.029,26.172
				c-2.189,9.615,1.555,10.855,5.533,9.068c-3.354,10.271,8.7,22.918,15.375,18.857c-2.71,5.201,2.241,10.016,5.96,7.947
				c-2.784,8.289,13.21,18.767,13.21,18.767c-3.86,6.78,1.546,8.469,5.813,4.959c-5.68,10.121,2.166,22.267,2.166,22.267
				c-5.366,11.706,8.3,18.184,8.3,18.184L213.375,254.695z"/>
			<path style="fill:#BFBFBF;" d="M157.058,284.391c0,0,9.239-18.479,8.936-29.777c-0.447-16.665-19.85-49.516-37.127-73.495
				c-17.277-23.979-41.841-46.146-66.206-77.034c29.291,32.394,62.079,62.819,89.598,101.322
				c20.342,28.461,32.642,49.614,38.214,59.063c3.297,11.651-9.324,7.256-12.451,2.242
				C172.748,278.999,157.243,290.383,157.058,284.391z"/>
			<path style="fill:#BFBFBF;" d="M241.278,246.205c0.029,0.318,0.311,0.552,0.629,0.523c0.318-0.029,0.552-0.311,0.523-0.628
				c-0.029-0.318-0.311-0.552-0.628-0.523C241.483,245.605,241.249,245.887,241.278,246.205z"/>
			<path style="fill:#BFBFBF;" d="M162.418,339.67c0,0,6.019,1.978,9.576,6.377c3.557,4.399,2.845,9.134,2.318,10.569
				c-1.16,3.152-3.582,5.415-3.582,5.415s1.842-5.298,1.62-6.839c-0.222-1.54-0.77-4.389-3.12-6.597
				c0.245,1.162,0.427,2.343,0.553,3.523c0.21,1.974,0.337,3.669-1.125,5.188c-0.363,0.377-0.817,0.685-1.33,0.788
				c-0.158,0.031-0.321,0.043-0.48,0.018c-0.204-0.032-0.396-0.124-0.567-0.241c-0.561-0.387-0.892-1.045-1.016-1.715
				c-0.124-0.67-0.063-1.36,0.02-2.037c0.259,0.115,0.397,0.392,0.59,0.599c0.621,0.666,0.83-0.089,0.822-0.609
				c-0.009-0.602-0.036-1.205-0.077-1.805c-0.081-1.172-0.118-2.611-0.71-3.661c-0.835,1.944-3.867,5.891-5.698,2.534
				c-0.131-0.241-0.24-0.506-0.225-0.78c0.018-0.318,0.202-0.619,0.163-0.935c0.288,0.323,0.622,0.67,1.054,0.699
				c1.607,0.107,2.166-2.564,2.673-3.647c0,0-1.826-0.794-2.668-3.637C161.211,342.878,160.621,339.182,162.418,339.67z"/>
			<path style="fill:#BFBFBF;" d="M187.038,339.006c-0.082,0.013-0.161,0.035-0.237,0.069c-0.467,0.212-2.225,1.127-3.415,3.358
				c-1.383,2.592-2.065,6.49-2.065,6.49s2.568-2.891,2.7-3.803c0.132-0.912,0.807-1.377,0.807-1.377
				c-0.059,1.006-0.188,2.012-0.342,3.007c-0.146,0.941-0.326,1.877-0.558,2.801c-0.079,0.315-0.164,0.628-0.256,0.939
				c-0.237,0.8-0.769,1.512-1.541,1.827c-0.257,0.105-0.524,0.157-0.788,0.084c-0.394-0.11-0.683-0.481-1.085-0.553
				c0.053,0.456,0.237,0.896,0.525,1.254c0.116,0.144,0.248,0.275,0.392,0.39c0.61,0.487,1.439,0.675,2.208,0.539
				c1.799-0.319,2.285-2.097,2.998-3.54c0.479-0.969,1.258-2.259,1.17-3.391c-0.021-0.267-0.043-0.874-0.063-1.568
				c-0.029-0.996,1.291-1.385,1.801-0.53c0.292,0.49,0.53,0.964,0.625,1.336c0.278,1.078,0.264,2.262,0.291,3.367
				c0.017,0.722,0.008,1.011-0.607,1.473c-0.558,0.419-1.249,0.663-1.947,0.672c-0.278,0.004-0.563-0.027-0.83,0.052
				c0.406,0.734,1.274,1.135,2.113,1.135c0.883,0,1.873-0.323,2.35-1.066c0.517-0.805,0.921-1.698,1.171-2.621
				c0.536-1.983-0.017-4.614-0.588-6.504c-0.444-1.469-1.268-2.79-2.385-3.842l0,0c-0.218-0.205-0.518-0.298-0.814-0.252
				L187.038,339.006z"/>
		</g>
		<g>
			<g>
				<g>
					<path style="fill:#FFFFFF;" d="M228.031,254.176c-3.372-7.809-3.536-30.436-1.47-44.816
						c2.959-20.602,2.819-39.007,0.468-39.919c-2.351-0.912-4.556,5.616-4.556,5.616s-1.043-31.322-34.111-74.212
						c-19.08-24.747-23.721-8.109-9.809,22.732c-23.566-23.109-40.128-15.756-10.454,16.67
						c-40.644-17.345-37.627,2.761-15.781,16.832c-33.149-8.588-18.335,11.431-10.882,18.816c-9.398-2.585-2.781,7.307-2.781,7.307
						c-19.424-2.147-14.053,12.217-6.693,23.841c7.36,11.624,50.927,52.383,64.4,56.604
						C209.835,267.87,228.031,254.176,228.031,254.176z"/>
					<path style="fill:#DDDDDF;" d="M132.003,162.208c5.403,7.428,13.278,15.208,22.167,14.313
						c-5.762,18.392,13.073,37.532,18.883,31.139c0.198,8.37,5.484,21.131,9.233,9.653c5.881,15.767,31.098,23.721,43.838-4.479
						c-1.583,14.318-1.205,34.136,1.907,41.342c0,0-18.195,13.694-31.669,9.473c-13.473-4.221-57.04-44.981-64.4-56.605
						c-7.361-11.624-12.732-25.988,6.693-23.841c0,0-6.617-9.892,2.781-7.307C138.129,172.619,133.376,166.857,132.003,162.208z"/>
					<path style="fill:#DDDDDF;" d="M206.857,189.449c3.126-13.142-1.614-45.474-7.271-20.21c-5.65-11.909-8.489-7.173-5.532,7.451
						c-11.958-13.891-26.378-15.842-6.211,11.969c-2.452-10.486,0.79-19.015,11.872,2.644c-4.227-15.106-0.698-21.657,1.061-13.72
						C204.283,165.625,208.148,170.21,206.857,189.449z"/>
				</g>
				<g>
					<path style="fill:none;stroke:#0F9A3F;stroke-width:1.098;stroke-linecap:round;stroke-miterlimit:10;" d="M283.835,197.32
						c0.518,46.868-24.112,70.546-46.037,70.33"/>
					<g>
						<path style="fill:#0F9A3F;" d="M283.786,200.083c0,0,8.377-5.616,0.138-17.587
							C276.297,192.844,283.786,200.083,283.786,200.083z"/>
						<path style="fill:#0F9A3F;" d="M283.034,207.8c0,0,2.953-8.316-9.082-12.424C273.996,206.624,283.034,207.8,283.034,207.8z"/>
						<path style="fill:#0F9A3F;" d="M282.677,216.025c0,0-0.081-8.825-12.794-8.553
							C273.784,218.022,282.677,216.025,282.677,216.025z"/>
						<path style="fill:#0F9A3F;" d="M278.63,229.797c0,0,2.887-8.339-9.179-12.353C269.583,228.692,278.63,229.797,278.63,229.797z
							"/>
						<path style="fill:#0F9A3F;" d="M279.864,230.989c0,0,6.884,5.521,14.719-4.495
							C283.945,222.839,279.864,230.989,279.864,230.989z"/>
						<path style="fill:#0F9A3F;" d="M274.95,239.487c0,0,2.082-7.73-9.092-10.595C266.693,239.062,274.95,239.487,274.95,239.487z"
							/>
						<path style="fill:#0F9A3F;" d="M275.193,242.17c0,0,4.706,6.477,13.954-0.417C280.711,236.014,275.193,242.17,275.193,242.17z
							"/>
						<path style="fill:#0F9A3F;" d="M268.788,249.345c0,0,2.973-4.689-3.836-8.89C263.408,247.362,268.788,249.345,268.788,249.345
							z"/>
						<path style="fill:#0F9A3F;" d="M269.241,251.417c0,0,3.794,4.054,9.568-1.485C272.51,246.706,269.241,251.417,269.241,251.417
							z"/>
						<path style="fill:#0F9A3F;" d="M283.556,209.066c0,0,1.09-8.757,13.689-7.033
							C292.162,212.068,283.556,209.066,283.556,209.066z"/>
						<path style="fill:#0F9A3F;" d="M282.15,219.47c0,0,1.09-8.757,13.689-7.033C290.755,222.472,282.15,219.47,282.15,219.47z"/>
					</g>
				</g>
				<path style="fill:#FFFFFF;" d="M143.002,328.418c-6.215,7.8-41.789,52.641-48.536,61.843c-6.747,9.202,2.436,16.911,6.008,13.7
					c-1.177,13.67,8.088,14.42,11.627,10.021c3.211,23.433,14.211,22.351,16.794,14.82c3.754,13.259,16.095,4.451,16.095,4.451
					c3.308,14.87,20.223,10.113,19.126-3.037c12.19,6.665,13.309-8.936,13.309-8.936c12.744-2.059,13.34-15.273,13.34-15.273
					c11.208-2.799,13.476-14.956,8.84-21.632c10.166-3.444,15.733-17.796,10.25-26.802c6.865-6.597,9.771-18.988,5.637-24.502
					c7.394-13.49,3.155-21.255,3.155-21.255s-15.954,5.567-27.233,6.474C180.135,319.198,143.002,328.418,143.002,328.418z"/>
				<path style="fill:#DDDDDF;" d="M195.617,335.94c10.103,10.107,1.567,18.798-4.891,18.172c4.044,9.389-2.822,4.225-5.635,2.974
					c8.533,28.992-11.942,39.785-22.945,24.831c-1.595,15.101-7.056,6.878-7.493,1.294c-7.692,18.813-23.278,4.067-20.459-7.526
					c-9.599,9.566-9.255-2.723-7.307-8.01c-5.974,3.139-11.756,1.837-15.103,0.215c12.894-16.332,25.738-33.265,30.836-39.584
					c0,0,37.514-9.109,48.793-10.016c4.348-0.35,9.389-1.393,13.945-2.542C210.262,321.54,203.978,332.468,195.617,335.94z"/>
				<path style="fill:#FFFFFF;" d="M246.934,230.967c-6.67-7.164-18.731-8.057-30.897-3.018
					c-9.761,4.043-44.372,12.598-58.68,36.544c-14.307,23.947-16.761,61.23-14.784,76.709c2.265,17.738,23.613,22.866,34.728,4.513
					c13.653-22.543,34.137-30.226,40.505-44.264c7.94-17.505,3.593-25.493,11.516-37.576c4.829-7.366,14.193-0.014,20.42-8.138
					C254.008,250.173,254.604,239.205,246.934,230.967z"/>
				<path style="fill:#E2ADAE;" d="M240.747,256.748c0.095-2.375,5.711-2.424,7.447-4.715c1.344-1.772,3.16-0.318,2.971,1.344
					c-0.409,0.862-0.883,1.657-1.422,2.36c-2.217,2.892-4.455,3.686-7.121,4.018C241.74,259.055,240.697,257.988,240.747,256.748z"
					/>
				<path style="fill:#222221;" d="M237.344,250.128c-0.186-0.155,0.291-3.382-1.245-4.66c-1.537-1.278-3.696,0.038-3.696,0.038
					s-0.323,3.041,1.489,4.035C235.704,250.537,237.344,250.128,237.344,250.128z"/>
				<path style="fill:#CD5B53;" d="M249.672,254.418c2.574,6.243,2.936,15.41,2.259,15.872c-0.678,0.462-9.993-11.241-9.993-11.241
					S245.993,254.436,249.672,254.418z"/>
				<path style="fill:#EEF0F1;" d="M149.547,281.895c-7.086,26.1-4.519,50.612,4.928,61.06c12.559,13.89,29.49-4.322,23.947-17.367
					c-1.42-3.343-8.982-37.527-8.299-36.063c6.994,14.986,7.75,23.219,25.131,27.822c3.736,0.99,7.343-0.429,10.445-1.586
					c-8.743,7.637-19.895,15.913-28.398,29.953c-11.115,18.353-32.463,13.225-34.728-4.513
					C141.032,329.135,142.185,303.816,149.547,281.895z"/>
				<path style="fill:#EEF0F1;" d="M222.594,254.191c1.111-1.144,9.983,1.173,17.98,5.841c-4.277,0.226-8.5-0.354-11.252,3.843
					c-2.772,4.228-4.04,7.955-4.86,11.763C224.322,263.694,221.48,255.339,222.594,254.191z"/>
				<g>
					<path style="fill:#FFFFFF;" d="M206.347,254.695c-9.218-5.439-66.253-70.003-90.345-93.994S52.319,96.41,39.743,79.35
						C27.166,62.29,23.823,56.62,22.33,58.619c-1.493,1.998,21.488,37.493,21.488,37.493s-14.533-14.322-17.099-9.982
						c-2.566,4.34,24.16,31.91,36.304,42.392c-10.995-2.897-5.667,7.193,2.343,14.087c-9.644-0.183-2.202,12.543,10.965,23.229
						c-4.58,1.924-2.047,4.903,2.725,4.885c-9.456,7.036,0.664,21.879,10.029,26.172c-2.189,9.615,1.555,10.855,5.534,9.068
						c-3.354,10.271,8.7,22.918,15.375,18.857c-2.71,5.201,2.241,10.016,5.96,7.947c-2.784,8.289,13.21,18.767,13.21,18.767
						c-3.86,6.78,1.546,8.469,5.813,4.959c-5.68,10.121,2.166,22.267,2.166,22.267c-5.366,11.706,8.3,18.184,8.3,18.184
						L206.347,254.695z"/>
					<path style="fill:#EEF0F1;" d="M150.03,284.391c0,0,9.239-18.479,8.936-29.777c-0.447-16.665-19.85-49.516-37.127-73.495
						c-17.277-23.979-41.841-46.146-66.206-77.034c29.291,32.394,62.079,62.819,89.598,101.322
						c20.342,28.461,32.642,49.614,38.214,59.063c3.297,11.651-9.324,7.256-12.451,2.242
						C165.72,278.999,150.215,290.383,150.03,284.391z"/>
				</g>
				<path style="fill:#FFFFFF;" d="M234.251,246.205c0.029,0.318,0.311,0.552,0.628,0.523c0.318-0.029,0.552-0.311,0.523-0.628
					c-0.029-0.318-0.311-0.552-0.628-0.523C234.455,245.605,234.221,245.887,234.251,246.205z"/>
				<path style="fill:#CD5B53;" d="M155.39,339.67c0,0,6.019,1.978,9.576,6.377c3.557,4.399,2.845,9.134,2.318,10.569
					c-1.16,3.152-3.582,5.415-3.582,5.415s1.842-5.298,1.62-6.839c-0.222-1.54-0.77-4.389-3.12-6.597
					c0.245,1.162,0.427,2.343,0.553,3.523c0.21,1.974,0.337,3.669-1.125,5.188c-0.363,0.377-0.817,0.685-1.33,0.788
					c-0.158,0.031-0.321,0.043-0.48,0.018c-0.204-0.032-0.396-0.124-0.567-0.241c-0.561-0.387-0.891-1.045-1.016-1.715
					c-0.124-0.67-0.063-1.36,0.02-2.037c0.259,0.115,0.397,0.392,0.59,0.599c0.621,0.666,0.83-0.089,0.822-0.609
					c-0.009-0.602-0.036-1.205-0.077-1.805c-0.081-1.172-0.118-2.611-0.71-3.661c-0.835,1.944-3.867,5.891-5.698,2.534
					c-0.131-0.241-0.24-0.506-0.224-0.78c0.018-0.318,0.202-0.619,0.163-0.935c0.288,0.323,0.622,0.67,1.054,0.699
					c1.607,0.107,2.166-2.564,2.673-3.647c0,0-1.826-0.794-2.668-3.637C154.183,342.878,153.593,339.182,155.39,339.67z"/>
				<path style="fill:#CD5B53;" d="M180.01,339.006c-0.082,0.013-0.161,0.035-0.237,0.069c-0.467,0.212-2.225,1.127-3.415,3.358
					c-1.383,2.592-2.065,6.49-2.065,6.49s2.568-2.891,2.7-3.803c0.132-0.912,0.807-1.377,0.807-1.377
					c-0.059,1.006-0.188,2.012-0.342,3.007c-0.146,0.941-0.326,1.877-0.558,2.801c-0.079,0.315-0.164,0.628-0.256,0.939
					c-0.237,0.8-0.769,1.512-1.541,1.827c-0.257,0.105-0.524,0.157-0.788,0.084c-0.394-0.11-0.683-0.481-1.085-0.553
					c0.053,0.456,0.237,0.896,0.525,1.254c0.116,0.144,0.248,0.275,0.392,0.39c0.61,0.487,1.439,0.675,2.208,0.539
					c1.799-0.319,2.285-2.097,2.998-3.54c0.479-0.969,1.258-2.259,1.17-3.391c-0.021-0.267-0.043-0.874-0.063-1.568
					c-0.029-0.996,1.291-1.385,1.801-0.53c0.292,0.49,0.53,0.964,0.626,1.336c0.278,1.078,0.264,2.262,0.291,3.367
					c0.017,0.722,0.008,1.011-0.607,1.473c-0.558,0.419-1.249,0.663-1.947,0.672c-0.278,0.004-0.563-0.027-0.83,0.052
					c0.406,0.734,1.274,1.135,2.113,1.135c0.883,0,1.873-0.323,2.35-1.066c0.517-0.805,0.921-1.698,1.171-2.621
					c0.536-1.983-0.017-4.614-0.588-6.504c-0.444-1.469-1.268-2.79-2.385-3.842l0,0c-0.218-0.205-0.518-0.298-0.814-0.252
					L180.01,339.006z"/>
			</g>
		</g>
	</g>
</g>
</svg>
